<?xml version="1.0" encoding="UTF-8" standalone="no"?>
<!-- Generator: Adobe Illustrator 18.0.0, SVG Export Plug-In . SVG Version: 6.00 Build 0)  -->

<svg
   xmlns:dc="http://purl.org/dc/elements/1.1/"
   xmlns:cc="http://creativecommons.org/ns#"
   xmlns:rdf="http://www.w3.org/1999/02/22-rdf-syntax-ns#"
   xmlns:svg="http://www.w3.org/2000/svg"
   xmlns="http://www.w3.org/2000/svg"
   xmlns:sodipodi="http://sodipodi.sourceforge.net/DTD/sodipodi-0.dtd"
   xmlns:inkscape="http://www.inkscape.org/namespaces/inkscape"
   version="1.1"
   id="Default"
   x="0px"
   y="0px"
   viewBox="0 0 64 64"
   enable-background="new 0 0 612 792"
   xml:space="preserve"
   sodipodi:docname="favicon.svg"
   width="64"
   height="64"
   inkscape:version="0.92.4 (5da689c313, 2019-01-14)"><metadata
   id="metadata15"><rdf:RDF><cc:Work
       rdf:about=""><dc:format>image/svg+xml</dc:format><dc:type
         rdf:resource="http://purl.org/dc/dcmitype/StillImage" /><dc:title /></cc:Work></rdf:RDF></metadata><defs
   id="defs13" /><sodipodi:namedview
   pagecolor="#ffffff"
   bordercolor="#666666"
   borderopacity="1"
   objecttolerance="10"
   gridtolerance="10"
   guidetolerance="10"
   inkscape:pageopacity="0"
   inkscape:pageshadow="2"
   inkscape:window-width="1920"
   inkscape:window-height="1017"
   id="namedview11"
   showgrid="false"
   inkscape:zoom="9.5353535"
   inkscape:cx="16.142953"
   inkscape:cy="29.987933"
   inkscape:window-x="-8"
   inkscape:window-y="-8"
   inkscape:window-maximized="1"
   inkscape:current-layer="Default" />
<polygon
   points="174.7,40.4 116.2,40.4 174.7,98.9 "
   id="polygon2"
   style="fill:#008080"
   transform="matrix(0.50232607,0,0,0.50116192,-23.792616,-20.146658)" />
<polygon
   points="174.7,139.7 174.7,98.9 116.2,40.4 75.4,40.4 "
   id="polygon4"
   style="fill:#008080"
   transform="matrix(0.50232607,0,0,0.50116192,-23.792616,-20.146658)" />
<polygon
   points="174.7,139.7 75.4,139.7 75.4,40.4 "
   id="polygon6"
   style="fill:#008080"
   transform="matrix(0.50232607,0,0,0.50116192,-23.792616,-20.146658)" />
<polygon
   points="174.7,167.8 174.7,139.7 75.4,139.7 75.4,40.4 47.3,40.4 47.3,167.8 "
   id="polygon8"
   style="fill:#008080"
   transform="matrix(0.50232607,0,0,0.50116192,-23.792616,-20.146658)" />
<path
   style="fill:#00ff00;fill-opacity:1;stroke-width:0.07415633"
   d="M 40.414673,26.325485 C 27.485518,13.431449 16.289878,2.2671391 15.535473,1.5159076 L 14.163828,0.15003211 h 10.212018 10.212017 l 14.688926,14.66441389 14.688925,14.664413 -0.02174,10.145164 -0.02174,10.145164 z"
   id="path17"
   inkscape:connector-curvature="0" /><path
   style="fill:#00ff00;fill-opacity:1;stroke-width:0.07415633"
   d="M 0.03655362,32.037252 V 0.15003211 H 7.0443264 14.052099 V 25.029479 49.908927 h 24.953604 24.953603 v 7.007772 7.007773 H 31.99793 0.03655362 Z"
   id="path19"
   inkscape:connector-curvature="0" /><path
   style="fill:#55ff99;fill-opacity:1;stroke-width:0.07415633"
   d="M 49.282562,14.722739 34.704636,0.15200996 49.331971,0.15102103 63.959306,0.15003211 V 14.72175 c 0,8.014445 -0.02223,14.571718 -0.04941,14.571718 -0.02717,0 -6.609476,-6.556828 -14.627335,-14.570729 z"
   id="path21"
   inkscape:connector-curvature="0" /><path
   style="fill:#0044aa;fill-opacity:1;stroke-width:0.07415633"
   d="M 0.03655362,32.037252 V 0.15003211 H 7.0443264 14.052099 V 25.029479 49.908927 h 24.953604 24.953603 v 7.007772 7.007773 H 31.99793 0.03655362 Z"
   id="path23"
   inkscape:connector-curvature="0" /><path
   style="fill:#0044aa;fill-opacity:1;stroke-width:0.07415633"
   d="M 39.042781,24.912017 14.23749,0.15611177 24.396907,0.15550813 34.556323,0.1549045 49.258541,14.838368 63.960759,29.52183 l -0.05634,10.073046 -0.05634,10.073046 z"
   id="path25"
   inkscape:connector-curvature="0" /><path
   style="fill:#003380;fill-opacity:1;stroke-width:0.07415633"
   d="M 14.126256,25.011385 V 0.18799824 L 22.561538,8.6049085 C 27.200943,13.234209 38.390147,24.404733 47.426435,33.428294 L 63.85605,49.83477 H 38.991153 14.126256 Z"
   id="path27"
   inkscape:connector-curvature="0" /><path
   style="fill:#00ff66;fill-opacity:1;stroke-width:0.07415633"
   d="M 0.03655362,32.037252 V 0.15003211 H 7.0443264 14.052099 V 25.029479 49.908927 h 24.953604 24.953603 v 7.007772 7.007773 H 31.99793 0.03655362 Z"
   id="path29"
   inkscape:connector-curvature="0" /><path
   style="fill:#00ff66;fill-opacity:1;stroke-width:0.07415633"
   d="M 49.313503,14.684853 34.778934,0.15003211 h 14.590187 14.590185 l -0.01044,9.88133089 c -0.0057,5.434731 -0.03077,11.975401 -0.05562,14.53482 l -0.04517,4.653491 z"
   id="path31"
   inkscape:connector-curvature="0" /><path
   style="fill:#2a7fff;fill-opacity:1;stroke-width:0.10487288"
   d="M 39.051964,24.849926 14.412551,0.25309414 24.480347,0.251406 34.548144,0.249718 l 14.66723,14.600189 14.667228,14.60019 -0.01572,9.782346 c -0.0086,5.380291 -0.05167,9.879539 -0.09561,9.998331 -0.06889,0.186229 -3.47428,-3.172534 -24.71931,-24.380848 z"
   id="path18"
   inkscape:connector-curvature="0" /></svg>